<svg t="1697883656219" class="icon" viewBox="0 0 1024 1024" version="1.1" xmlns="http://www.w3.org/2000/svg" p-id="5763" width="200" height="200"><path d="M437.888 952.704l-336-1.152V84.096h397.44l6.016 160.256h236.544v299.904h76.8v-354.56L532.096 12.8H25.088v1009.92h40.064l372.736 1.28v-71.296z m253.824-755.968h-136.96l-3.2-86.4 140.16 86.4z" fill="#2D8CF0" p-id="5764"></path><path d="M155.648 804.736c16.768 13.952 35.84 20.864 57.216 20.864 12.16 0 21.248-2.048 27.264-6.272 6.144-4.224 9.088-9.472 9.088-16.128 0-5.632-2.432-11.008-7.296-16s-17.664-11.904-38.4-20.48c-32.512-13.824-48.896-33.92-48.896-60.288 0-19.328 7.424-34.432 22.144-45.184 14.72-10.752 34.304-16.128 58.624-16.128 20.352 0 37.504 2.688 51.328 7.936v41.728c-13.952-9.472-30.336-14.208-49.152-14.208-10.88 0-19.712 2.048-26.24 6.016s-9.856 9.344-9.856 16.128c0 5.376 2.176 10.368 6.784 14.848 4.48 4.48 15.616 10.624 33.28 18.432 20.736 8.832 34.944 18.304 42.752 28.16s11.648 21.632 11.648 35.2c0 19.968-7.04 35.2-21.248 45.696-14.208 10.496-34.304 15.744-60.416 15.744-23.808 0-43.392-3.84-58.624-11.52v-44.544z m353.024 52.48h-44.416V771.2h-88.832v86.016h-44.416V648.704h44.416V732.8h88.832v-84.096h44.416v208.512z m172.16 0H557.44V648.704h118.528v36.352h-74.112v49.152h68.864v36.224h-68.864v50.432h78.976v36.352z m156.544 0H715.008V648.704h44.416v172.16h77.952v36.352z m150.656 0H865.664V648.704h44.416v172.16h77.952v36.352z" fill="#2D8CF0" p-id="5765"></path></svg>